<?xml version="1.0" standalone="no"?>
<!DOCTYPE svg PUBLIC "-//W3C//DTD SVG 20010904//EN"
 "http://www.w3.org/TR/2001/REC-SVG-20010904/DTD/svg10.dtd">
<svg version="1.0" xmlns="http://www.w3.org/2000/svg"
 width="500.000000pt" height="500.000000pt" viewBox="0 0 500.000000 500.000000"
 preserveAspectRatio="xMidYMid meet">

<g transform="translate(0.000000,500.000000) scale(0.100000,-0.100000)"
fill="#000000" stroke="none">
<path d="M4230 4426 c-181 -38 -271 -61 -310 -81 -215 -107 -335 -312 -324
-549 8 -169 98 -332 238 -430 33 -24 69 -46 79 -49 16 -6 13 -16 -28 -98 -26
-50 -60 -127 -76 -172 -17 -46 -46 -99 -68 -126 -59 -71 -89 -124 -117 -208
-35 -102 -37 -245 -5 -343 38 -122 130 -246 228 -308 24 -15 42 -30 40 -33
-71 -162 -64 -152 -135 -184 -78 -35 -147 -81 -217 -143 -74 -66 -199 -152
-305 -211 -365 -201 -736 -239 -1190 -120 -273 72 -513 201 -739 398 -73 63
-241 249 -241 265 0 6 72 107 160 224 142 188 160 217 160 251 0 54 -38 91
-94 91 -52 0 -206 -34 -243 -54 -40 -21 -77 -62 -198 -221 -58 -77 -110 -141
-115 -143 -5 -2 -9 29 -9 68 0 58 -4 79 -24 113 -31 53 -89 87 -149 87 -59 0
-373 -64 -393 -80 -20 -16 -19 -54 1 -75 9 -8 42 -23 75 -32 l59 -16 0 -521
c0 -333 4 -535 11 -559 14 -52 63 -104 110 -118 43 -13 161 2 209 26 34 18 77
64 89 98 7 17 11 110 11 224 l0 196 55 74 56 73 71 -81 c133 -151 377 -343
568 -447 233 -128 592 -236 850 -256 41 -4 100 -9 132 -12 68 -7 293 11 403
32 133 26 266 66 388 118 l37 16 0 -47 c0 -27 9 -86 20 -133 64 -267 265 -490
518 -573 307 -102 621 -26 842 203 230 237 288 597 145 897 -67 143 -167 255
-300 338 -69 43 -218 104 -255 105 -8 0 -21 4 -29 9 -12 8 -12 13 1 33 11 17
33 28 71 37 30 6 87 28 127 47 97 46 212 160 258 256 107 220 69 468 -99 652
l-51 56 62 58 c56 51 62 61 56 85 -12 49 -31 50 -216 12 -173 -35 -220 -41
-220 -27 0 4 22 41 48 82 47 72 52 76 115 99 250 92 404 369 352 636 -25 133
-103 264 -201 339 l-43 33 54 52 c56 54 63 68 45 102 -16 29 -62 24 -350 -35z
m61 -411 c56 -40 99 -120 99 -185 0 -64 -43 -146 -95 -182 -106 -74 -256 -43
-319 65 -49 83 -44 175 13 254 43 59 100 84 188 80 61 -2 78 -7 114 -32z m-20
-1283 c68 -36 110 -99 117 -176 8 -100 -39 -179 -133 -222 -172 -81 -355 82
-302 267 40 136 190 198 318 131z m-132 -1241 c32 -25 42 -28 83 -24 58 7 78
-5 97 -57 14 -37 22 -45 59 -58 52 -17 66 -41 57 -98 -6 -39 -3 -49 24 -86 17
-23 31 -47 31 -53 0 -7 -14 -31 -31 -54 -26 -37 -29 -48 -24 -85 9 -57 -4 -79
-57 -99 -37 -14 -46 -24 -58 -59 -19 -53 -50 -70 -104 -58 -35 8 -43 6 -75
-21 -45 -37 -72 -37 -119 0 -32 26 -42 28 -77 22 -56 -10 -80 4 -103 58 -17
41 -25 49 -61 60 -53 15 -68 44 -54 100 10 36 8 42 -18 73 -36 42 -37 81 -3
121 23 27 25 37 20 81 -3 28 -3 56 1 62 5 7 30 22 57 35 36 18 52 32 59 54 18
56 36 68 96 62 50 -5 57 -3 88 24 42 37 66 37 112 0z"/>
<path d="M1647 4342 c-23 -25 -21 -55 3 -77 18 -16 20 -31 20 -142 0 -113 2
-124 18 -121 14 3 18 18 22 101 l5 97 37 -30 c32 -26 37 -37 40 -78 2 -34 7
-47 18 -47 11 0 16 13 18 47 3 43 8 51 53 89 l49 41 48 -38 c26 -21 48 -38 50
-39 1 -1 4 -20 6 -43 7 -75 36 -82 36 -8 0 38 5 46 39 74 22 18 42 32 45 32 3
0 6 -45 6 -100 0 -82 3 -100 15 -100 13 0 15 20 15 120 0 107 2 122 20 140 38
38 16 100 -35 100 -13 0 -31 -7 -39 -16 -21 -20 -21 -70 0 -82 13 -7 8 -16
-32 -50 -52 -44 -53 -44 -113 8 -33 28 -34 30 -18 48 35 38 8 92 -45 92 -43 0
-64 -43 -42 -86 14 -27 14 -29 -28 -65 -24 -21 -45 -38 -48 -38 -3 0 -24 16
-48 37 -43 37 -43 38 -28 66 14 28 12 49 -7 74 -14 18 -62 15 -80 -6z m63 -37
c0 -16 -27 -27 -36 -14 -3 5 -3 16 0 24 6 17 36 9 36 -10z m240 2 c0 -19 -10
-27 -26 -20 -21 8 -17 33 6 33 11 0 20 -6 20 -13z m243 6 c9 -9 -13 -34 -24
-27 -14 8 -11 34 4 34 8 0 17 -3 20 -7z"/>
<path d="M3110 4187 c-63 -15 -123 -44 -168 -81 -25 -22 -31 -24 -42 -12 -18
23 -63 28 -131 16 -72 -13 -112 -31 -152 -69 -60 -56 -61 -60 -65 -478 -4
-413 0 -446 47 -494 42 -42 92 -51 171 -33 52 12 74 23 101 50 l34 35 5 317
c5 308 6 318 27 348 64 89 196 80 245 -17 16 -29 18 -65 18 -261 0 -240 4
-265 48 -311 35 -37 76 -46 148 -35 79 12 114 34 142 88 23 45 23 48 19 350
-4 338 -6 352 -72 442 -86 117 -239 176 -375 145z"/>
<path d="M730 4090 c-163 -26 -281 -88 -405 -214 -100 -100 -159 -202 -192
-326 -24 -88 -24 -272 0 -360 43 -164 150 -321 282 -415 131 -94 262 -135 429
-135 171 0 324 52 453 153 71 56 95 94 95 153 0 64 -27 103 -103 147 -83 50
-133 48 -213 -7 -101 -69 -200 -95 -293 -76 -86 18 -169 66 -216 125 -65 82
-81 127 -82 230 0 82 3 96 32 156 39 79 102 140 181 177 49 23 70 27 147 26
95 0 149 -17 218 -66 24 -17 46 -23 88 -23 48 0 64 6 113 38 67 44 96 87 96
140 0 83 -51 138 -196 211 -40 20 -98 43 -130 51 -71 20 -229 27 -304 15z"/>
<path d="M1810 3945 c-157 -43 -292 -151 -359 -286 -22 -43 -45 -104 -51 -136
-17 -79 -7 -223 19 -298 59 -166 211 -307 377 -349 84 -22 213 -20 296 3 227
62 398 289 398 526 0 236 -151 447 -377 526 -78 28 -229 34 -303 14z m230
-348 c52 -27 104 -96 113 -152 21 -127 -86 -255 -213 -255 -90 0 -180 69 -206
157 -34 115 23 225 136 263 61 21 110 17 170 -13z"/>
<path d="M3110 2896 c-62 -14 -123 -43 -168 -81 -20 -16 -33 -22 -37 -15 -15
25 -59 31 -130 19 -127 -21 -194 -75 -214 -172 -14 -66 -13 -745 1 -801 12
-50 54 -91 106 -106 51 -13 154 10 190 43 51 47 52 57 52 364 0 261 2 292 19
330 37 80 138 105 212 53 54 -39 59 -65 59 -320 0 -247 2 -261 52 -308 38 -34
84 -44 151 -31 70 14 114 42 138 89 17 31 19 61 19 311 0 152 -5 300 -10 330
-39 205 -238 338 -440 295z"/>
<path d="M1806 2655 c-183 -47 -334 -188 -396 -374 -29 -86 -29 -230 -1 -321
57 -183 207 -328 386 -375 70 -18 192 -20 267 -4 123 26 267 128 338 240 193
300 53 698 -290 821 -74 26 -225 33 -304 13z m217 -339 c43 -17 94 -69 112
-113 8 -20 15 -59 15 -87 -1 -214 -281 -295 -394 -113 -70 113 -31 247 89 310
37 20 135 22 178 3z"/>
</g>
</svg>
